<?xml version="1.0" standalone="no"?>
<!DOCTYPE svg PUBLIC "-//W3C//DTD SVG 20010904//EN"
 "http://www.w3.org/TR/2001/REC-SVG-20010904/DTD/svg10.dtd">
<svg version="1.0" xmlns="http://www.w3.org/2000/svg"
 width="225.000000pt" height="225.000000pt" viewBox="0 0 225.000000 225.000000"
 preserveAspectRatio="xMidYMid meet">
<metadata>
Created by potrace 1.14, written by Peter Selinger 2001-2017
</metadata>
<g transform="translate(0.000000,225.000000) scale(0.100000,-0.100000)"
fill="#000000" stroke="none">
<path d="M370 2232 c-19 -9 -43 -33 -55 -52 -20 -35 -20 -47 -20 -1055 0
-1008 0 -1020 20 -1055 43 -73 6 -70 810 -70 804 0 767 -3 810 70 20 34 20 51
23 891 l2 857 -197 216 -198 215 -580 1 c-533 0 -583 -1 -615 -18z m1110 -277
c0 -230 -14 -215 200 -215 l160 0 0 -810 0 -810 -715 0 -715 0 0 1005 0 1005
535 0 535 0 0 -175z m259 -67 l24 -28 -81 0 -82 0 0 89 0 89 58 -61 c31 -34
68 -74 81 -89z"/>
<path d="M582 1618 c-16 -16 -15 -43 2 -57 9 -8 156 -10 526 -9 476 3 514 4
524 21 8 12 8 22 0 35 -10 16 -48 17 -525 20 -392 2 -518 -1 -527 -10z"/>
<path d="M582 1328 c-16 -16 -15 -43 2 -57 9 -8 156 -10 526 -9 476 3 514 4
524 21 8 12 8 22 0 35 -10 16 -48 17 -525 20 -392 2 -518 -1 -527 -10z"/>
<path d="M586 1044 c-22 -21 -20 -40 6 -58 20 -14 85 -16 508 -16 267 0 495 3
508 6 26 8 39 48 22 69 -11 13 -83 15 -521 15 -448 0 -509 -2 -523 -16z"/>
<path d="M582 758 c-16 -16 -15 -43 2 -57 9 -8 156 -10 526 -9 476 3 514 4
524 21 8 12 8 22 0 35 -10 16 -48 17 -525 20 -392 2 -518 -1 -527 -10z"/>
</g>
</svg>
